<svg version="1.1" id="Layer_1" xmlns="http://www.w3.org/2000/svg" xmlns:xlink="http://www.w3.org/1999/xlink" x="0px" y="0px"
	 width="100%" viewBox="0 0 1080 1080" enable-background="new 0 0 1080 1080" xml:space="preserve">
<path fill="#004AAD" opacity="1.000000" stroke="none" 
	d="
M476.000000,1081.000000 
	C317.351593,1081.000000 159.203171,1081.000000 1.027377,1081.000000 
	C1.027377,721.059814 1.027377,361.119598 1.027377,1.089690 
	C360.898651,1.089690 720.797363,1.089690 1080.848022,1.089690 
	C1080.848022,360.999939 1080.848022,720.999939 1080.848022,1081.000000 
	C879.452454,1081.000000 677.976257,1081.000000 476.000000,1081.000000 
M579.149841,583.226013 
	C579.728088,580.645081 580.245667,578.048645 580.901367,575.487549 
	C581.589050,572.801575 580.162048,572.319580 578.049744,571.812378 
	C580.598511,566.867004 584.886658,565.180542 591.462646,566.340332 
	C596.849426,567.290405 602.333923,569.088135 607.656555,568.732910 
	C622.780090,567.723511 637.012085,563.247009 649.753174,554.790283 
	C669.912231,541.409912 685.935913,524.221863 697.593201,502.924805 
	C707.932312,484.036041 714.463623,464.217468 712.876404,442.428589 
	C712.510376,437.404114 713.209473,431.609589 707.855835,427.218445 
	C705.860229,411.671326 699.329834,398.878662 685.230469,390.963745 
	C669.658447,382.222076 652.920898,381.417877 635.757874,384.376373 
	C629.822021,385.399597 629.014343,384.759521 629.888550,378.749695 
	C630.126648,377.113068 630.611755,375.508240 631.042114,373.904510 
	C632.550781,368.281982 634.403931,362.729248 635.527466,357.031952 
	C636.880920,350.168488 633.277710,346.025330 626.344727,345.905151 
	C618.121521,345.762634 610.971497,348.870300 606.507874,355.562866 
	C601.661621,362.829346 597.362427,370.666718 594.199341,378.790436 
	C591.182800,386.537842 586.849365,391.273315 578.839539,394.203430 
	C566.681885,398.650879 554.995117,404.439026 543.281494,410.021118 
	C538.292053,412.398834 536.240540,417.029541 538.305908,420.091370 
	C541.067444,424.185120 544.751587,422.035461 548.192810,420.916351 
	C555.461853,418.552429 562.672058,415.954102 570.054932,414.018555 
	C573.199585,413.194153 576.716614,413.790405 580.064514,413.741028 
	C579.656860,416.928619 579.761047,420.286804 578.763855,423.277832 
	C566.236511,460.854370 553.588745,498.390991 540.882019,535.907410 
	C536.725159,548.180298 532.309265,560.365479 527.070190,572.553650 
	C509.411407,572.542786 491.751892,572.459290 474.095123,572.641785 
	C472.461151,572.658691 469.718658,574.082275 469.402252,575.335388 
	C467.297302,583.671875 465.712982,592.139832 463.870209,600.993652 
	C476.884949,600.993652 489.507812,600.993652 502.554840,600.993652 
	C499.931000,613.953979 497.394958,626.480774 494.205963,639.328003 
	C492.171967,639.991577 490.084808,640.527954 488.116913,641.349792 
	C485.413086,642.478882 482.560669,643.502747 480.252289,645.218140 
	C479.165039,646.026123 478.551086,648.518799 478.936279,649.912781 
	C479.219971,650.939331 481.420990,651.890686 482.858490,652.048706 
	C485.809631,652.372986 488.821747,652.142517 491.748260,652.884949 
	C490.854187,657.593079 489.960114,662.301208 488.731201,667.697327 
	C484.046509,689.660645 479.361847,711.623962 474.652435,733.703247 
	C486.362579,733.703247 497.267334,733.703247 508.446320,733.703247 
	C512.881836,712.363037 517.270447,691.248352 521.938110,669.477722 
	C523.253296,663.247009 524.568542,657.016296 526.819336,650.587891 
	C540.073181,650.775757 553.326721,651.018372 566.581238,651.101868 
	C569.017883,651.117249 571.602905,650.867126 573.844177,650.015320 
	C575.217712,649.493286 576.868530,647.631714 576.934265,646.299683 
	C577.004883,644.868164 575.681946,642.912842 574.392151,641.986938 
	C572.856995,640.884827 570.689026,640.691528 568.832336,640.004333 
	C564.524170,638.409912 560.238342,636.755310 556.263428,634.386230 
	C557.788086,626.139893 558.410156,617.618958 568.156433,613.849365 
	C579.622498,609.414612 581.313171,599.098022 581.852356,588.560913 
	C581.927551,587.090698 580.127869,585.524536 579.149841,583.226013 
M393.326019,570.518921 
	C390.533539,570.332031 387.741058,570.145203 384.903473,569.176331 
	C387.476990,560.927612 389.797882,552.588135 392.716492,544.463379 
	C394.537140,539.395020 396.328796,539.326538 401.136383,541.747314 
	C406.585815,544.491333 412.087097,547.908752 417.932831,548.927551 
	C430.044891,551.038513 442.069794,548.369080 452.759094,542.759338 
	C496.286652,519.916260 521.677368,484.235565 526.488098,434.897675 
	C528.519836,414.060059 516.804688,395.711945 497.798096,387.980164 
	C484.270294,382.477112 470.322601,381.845490 456.091766,384.056274 
	C447.612396,385.373505 446.859650,384.548767 449.021088,376.173584 
	C449.270325,375.207886 449.632477,374.270844 449.870575,373.302826 
	C451.336853,367.341980 453.297668,361.443512 454.090332,355.392853 
	C454.885040,349.326508 451.485046,346.152100 445.285339,345.913483 
	C437.636627,345.619049 430.771088,348.243103 426.359100,354.236816 
	C421.487610,360.854736 416.806305,368.049622 414.104431,375.719635 
	C410.541901,385.833160 404.965179,391.939972 394.535767,395.393921 
	C383.078705,399.188141 372.280334,405.045776 361.360809,410.346008 
	C357.792786,412.077942 354.826935,415.392395 356.829193,419.680695 
	C358.947144,424.216644 362.935974,422.213074 366.418640,421.079224 
	C373.999573,418.611176 381.539490,415.983459 389.220520,413.873779 
	C392.098846,413.083252 395.322723,413.550598 398.389038,413.444427 
	C398.118225,416.623138 398.467255,420.009033 397.484253,422.949677 
	C380.766724,472.961609 363.893890,522.921692 347.003754,572.875732 
	C346.277466,575.023743 345.054565,577.003845 343.477631,579.425110 
	C342.976349,580.038330 342.589905,580.828552 341.957123,581.239197 
	C319.717316,595.673401 308.055450,617.026306 301.602020,642.594604 
	C295.851318,647.411743 295.591278,648.890320 299.884735,652.897461 
	C297.810638,664.712158 296.996765,676.560181 299.105225,688.460510 
	C302.789886,709.257385 312.926056,725.324463 333.686493,732.318176 
	C359.749817,741.098389 394.854736,736.682373 416.501129,710.448792 
	C440.283142,681.627075 446.505127,647.731262 440.417786,611.827759 
	C436.306549,587.579346 416.723572,571.708435 393.326019,570.518921 
M123.312675,733.269409 
	C120.996758,738.074829 123.088226,744.029480 128.541946,745.467468 
	C133.422333,746.754456 138.691513,746.843140 143.798447,746.933289 
	C152.575653,747.088135 157.502716,743.514160 160.057251,735.083130 
	C161.693314,729.683472 162.807068,724.115662 163.969894,718.584229 
	C168.348801,697.754700 172.596542,676.897400 177.056625,656.085449 
	C177.585266,653.618591 179.120041,651.367432 180.796341,647.678528 
	C182.639404,650.815369 183.826553,652.246643 184.392670,653.891724 
	C189.317993,668.203003 194.174042,682.538696 198.966568,696.895142 
	C203.287125,709.837891 207.329834,722.876038 211.827545,735.755981 
	C214.545975,743.540771 220.339432,747.302002 228.743469,747.035339 
	C234.567307,746.850525 240.401749,746.998169 246.231445,746.998840 
	C253.074081,746.999695 258.218414,744.203918 260.623444,737.608704 
	C262.040375,733.723267 263.088623,729.672180 263.952148,725.620850 
	C272.133362,687.237671 280.291229,648.849182 288.321045,610.434082 
	C289.846771,603.134888 290.920074,595.730469 291.908447,588.335327 
	C292.247040,585.801880 291.612244,583.202942 288.067780,582.223633 
	C288.694000,579.173462 289.320251,576.123291 290.058624,572.526855 
	C280.513214,572.526855 271.415436,572.408997 262.329132,572.678528 
	C261.214539,572.711609 259.483154,574.665100 259.185120,575.987305 
	C256.303345,588.772156 253.675171,601.614136 250.958725,614.436401 
	C247.317108,631.625671 243.661438,648.812012 239.359497,666.215332 
	C238.729080,667.136230 237.855728,667.974915 237.511261,668.992615 
	C236.185989,672.907959 233.828964,674.621582 229.226318,672.553711 
	C218.705444,639.205750 208.184570,605.857788 197.712387,572.664246 
	C184.215469,572.664246 171.411301,572.664246 158.448242,572.664246 
	C158.018661,574.172485 157.528229,575.568909 157.225479,577.004883 
	C149.785370,612.292725 142.405807,647.593262 134.923615,682.872131 
	C131.375397,699.602234 127.637947,716.292236 123.312675,733.269409 
M203.954041,545.838318 
	C201.081177,557.489624 204.560303,563.380981 216.342087,564.643616 
	C224.212952,565.487061 232.255661,564.797241 240.219818,564.680725 
	C248.504333,564.559509 256.788544,564.088013 265.069916,564.152832 
	C279.165070,564.263123 293.264130,565.055420 307.349518,564.824707 
	C316.897125,564.668396 321.995514,556.870422 319.474060,547.827209 
	C319.208679,546.875427 319.128937,545.871948 319.485321,544.458740 
	C320.855804,543.024719 323.359741,541.541382 323.300110,540.169434 
	C323.230896,538.575867 321.183533,536.605713 319.508942,535.652039 
	C316.941315,534.189758 313.979736,533.394470 311.148346,532.424133 
	C295.147766,526.940857 290.259491,518.905090 293.528503,502.344147 
	C306.098694,438.662872 318.834259,375.014252 331.375305,311.327301 
	C332.428558,305.978546 332.910522,300.434113 332.899628,294.982117 
	C332.888580,289.435028 329.821014,287.865814 324.968842,290.674011 
	C321.382446,292.749603 318.006500,295.251373 314.765320,297.848480 
	C306.681274,304.326019 297.578918,307.976044 287.194641,307.960785 
	C283.413971,307.955231 280.981628,309.514191 278.992218,312.565948 
	C274.902130,318.840118 271.137421,325.422577 266.346008,331.128418 
	C220.493820,385.731171 174.172943,439.943024 128.625076,494.797272 
	C112.958832,513.664490 93.979767,526.068604 70.453667,532.063354 
	C67.571449,532.797791 64.430603,533.538574 62.137543,535.251038 
	C60.187267,536.707520 57.936165,539.838989 58.313465,541.731995 
	C58.668831,543.514954 62.136528,545.036804 64.513786,545.938354 
	C66.263947,546.602051 68.464134,546.121338 70.462448,546.082153 
	C91.936630,545.661682 113.409607,545.168518 134.885040,544.830383 
	C142.045044,544.717590 149.213898,545.140686 156.372910,545.007446 
	C158.782349,544.962646 161.375381,544.362000 163.528915,543.296692 
	C167.275131,541.443420 167.562332,537.828369 164.187012,535.347900 
	C162.083389,533.802002 159.495834,532.896729 157.085968,531.789917 
	C153.917114,530.334473 150.547714,529.241089 147.553925,527.495605 
	C142.200867,524.374695 140.538986,520.127747 142.873352,514.336792 
	C144.720764,509.753845 147.056015,505.212280 149.980408,501.246552 
	C160.755737,486.634338 171.655045,472.099548 183.024765,457.951172 
	C185.360931,455.044098 189.856857,452.409943 193.476257,452.243927 
	C211.443893,451.419708 229.451279,451.458679 247.445023,451.219086 
	C248.266098,451.208160 249.100983,451.395386 249.911545,451.572357 
	C255.042130,452.692535 256.701202,455.101166 255.415421,460.165588 
	C251.320343,476.295288 247.181641,492.414734 242.917526,508.500427 
	C240.340790,518.220764 234.215973,524.841492 224.617844,527.998474 
	C220.046112,529.502197 215.342178,530.599487 210.735123,532.002319 
	C208.528183,532.674316 206.206894,533.310059 204.286377,534.517395 
	C199.275879,537.667297 199.272736,541.244202 203.954041,545.838318 
M827.787720,548.500000 
	C827.790466,574.993958 827.762756,601.487915 827.813110,627.981750 
	C827.829956,636.839844 831.005432,639.903687 839.934937,639.995056 
	C843.179077,640.028259 846.423828,640.000427 849.998047,640.000427 
	C849.998047,645.237610 849.986023,649.557312 850.000610,653.876831 
	C850.030457,662.738708 854.981018,667.842834 863.858521,667.850159 
	C912.180664,667.889954 960.502869,667.889954 1008.825012,667.852905 
	C1018.291504,667.845703 1022.016052,663.986267 1022.016724,654.509888 
	C1022.021301,588.191895 1022.021484,521.873901 1022.016907,455.555878 
	C1022.016235,445.259460 1018.708191,442.018158 1008.182312,442.001801 
	C997.018188,441.984436 985.851929,441.873108 974.691284,442.069672 
	C971.101318,442.132904 968.438538,441.254181 965.925171,438.550934 
	C960.596069,432.819244 954.854004,427.474121 949.396362,421.858582 
	C944.745117,417.072815 939.307617,414.669220 932.524719,414.694672 
	C901.698975,414.810211 870.871094,414.910309 840.047180,414.646545 
	C830.147705,414.561859 827.670105,418.526764 827.708984,427.028229 
	C827.892395,467.184784 827.788635,507.342621 827.787720,548.500000 
M597.476135,587.867493 
	C587.223083,636.429016 576.969971,684.990540 566.657471,733.833618 
	C597.064514,733.833618 626.845032,733.833618 656.878357,733.833618 
	C658.813599,724.577454 660.728088,715.420410 662.773010,705.639648 
	C643.681091,705.639648 625.294067,705.639648 606.308167,705.639648 
	C609.311646,691.441528 612.186523,677.851440 615.126404,663.953979 
	C632.885986,663.953979 650.327393,663.953979 667.799072,663.953979 
	C669.832764,654.531677 671.787903,645.473633 673.845398,635.941284 
	C656.176697,635.941284 638.921814,635.941284 621.204712,635.941284 
	C623.414246,625.392273 625.758118,615.364929 627.511597,605.235352 
	C628.177185,601.390747 629.699707,600.485474 633.336365,600.527283 
	C649.158997,600.709534 664.985413,600.653320 680.809265,600.533142 
	C682.354431,600.521423 685.032654,599.760620 685.255432,598.866516 
	C687.398621,590.267395 689.127563,581.565063 691.052185,572.529724 
	C665.168335,572.529724 640.024170,572.526672 614.880066,572.530884 
	C600.256592,572.533386 600.256592,572.538635 597.476135,587.867493 
M798.780334,587.270630 
	C799.618713,585.330200 800.457092,583.389771 801.280823,581.483337 
	C800.681030,580.940186 800.369995,580.514954 799.951050,580.299805 
	C780.883240,570.505127 760.712280,567.186584 739.914734,572.386963 
	C699.817322,582.413208 694.401428,624.572205 710.510437,645.186279 
	C715.968445,652.170715 723.142944,657.849792 729.751648,663.885986 
	C734.042419,667.805054 738.986694,671.021851 743.175171,675.036377 
	C748.933289,680.555359 750.740356,687.706604 748.506714,695.232178 
	C746.252197,702.828186 739.699768,705.658325 732.520447,707.018494 
	C716.673767,710.020630 702.239807,705.470154 688.276917,698.536987 
	C686.895752,697.851196 685.480652,697.233643 683.553223,696.339417 
	C683.553223,704.950378 683.929871,712.787842 683.416504,720.566650 
	C683.092041,725.481995 685.132812,727.681946 689.248291,729.491211 
	C706.196228,736.941406 723.705322,737.683044 741.574524,734.197510 
	C754.159851,731.742493 765.323914,726.449158 773.558899,716.283447 
	C788.040649,698.406311 786.899414,670.438904 770.711609,653.531860 
	C765.926331,648.533997 759.966797,644.660217 754.542419,640.274902 
	C750.155151,636.728088 745.304871,633.616272 741.485535,629.538330 
	C736.279053,623.979309 735.485596,616.929016 738.236511,609.936035 
	C740.927612,603.095276 746.748779,599.760559 753.787354,599.096313 
	C758.212036,598.678650 762.877441,598.688904 767.186401,599.636780 
	C774.743347,601.299072 782.109436,603.828979 789.893616,606.093872 
	C792.635925,600.232971 795.515503,594.078857 798.780334,587.270630 
z"/>
<path fill="#80D3F9" opacity="1.000000" stroke="none" 
	d="
M528.011963,572.590820 
	C532.309265,560.365479 536.725159,548.180298 540.882019,535.907410 
	C553.588745,498.390991 566.236511,460.854370 578.763855,423.277832 
	C579.761047,420.286804 579.656860,416.928619 580.064453,413.741028 
	C576.716614,413.790405 573.199585,413.194153 570.054932,414.018555 
	C562.672058,415.954102 555.461853,418.552429 548.192810,420.916351 
	C544.751587,422.035461 541.067444,424.185120 538.305908,420.091370 
	C536.240540,417.029541 538.292053,412.398834 543.281494,410.021118 
	C554.995117,404.439026 566.681885,398.650879 578.839539,394.203430 
	C586.849365,391.273315 591.182800,386.537842 594.199341,378.790436 
	C597.362427,370.666718 601.661621,362.829346 606.507874,355.562866 
	C610.971497,348.870300 618.121521,345.762634 626.344727,345.905151 
	C633.277710,346.025330 636.880920,350.168488 635.527466,357.031952 
	C634.403931,362.729248 632.550781,368.281982 631.042114,373.904510 
	C630.611755,375.508240 630.126648,377.113068 629.888550,378.749695 
	C629.014343,384.759521 629.822021,385.399597 635.757874,384.376373 
	C652.920898,381.417877 669.658447,382.222076 685.230469,390.963745 
	C699.329834,398.878662 705.860229,411.671326 707.899048,428.072601 
	C708.354736,440.996704 706.212280,452.689270 702.307434,464.034302 
	C691.253906,496.149323 671.517212,521.708069 642.106445,538.647400 
	C622.962952,549.673157 602.439392,556.045044 581.614868,541.276733 
	C581.479980,541.181091 581.323242,541.116760 581.179565,541.032898 
	C578.534729,539.487793 575.916077,539.821533 574.979797,542.707458 
	C571.767212,552.609863 568.943542,562.638489 565.716248,572.883667 
	C562.597839,582.385620 559.734741,591.622803 556.580383,601.093384 
	C554.307434,607.588257 552.230713,613.821777 550.369568,620.118896 
	C548.311584,627.082275 550.363098,632.377991 555.943420,635.125122 
	C560.238342,636.755310 564.524170,638.409912 568.832336,640.004333 
	C570.689026,640.691528 572.856995,640.884827 574.392151,641.986938 
	C575.681946,642.912842 577.004883,644.868164 576.934265,646.299683 
	C576.868530,647.631714 575.217712,649.493286 573.844177,650.015320 
	C571.602905,650.867126 569.017883,651.117249 566.581238,651.101868 
	C553.326721,651.018372 540.073181,650.775757 526.021118,650.606750 
	C514.084839,651.130615 502.946808,651.635559 491.808777,652.140503 
	C488.821747,652.142517 485.809631,652.372986 482.858490,652.048706 
	C481.420990,651.890686 479.219971,650.939331 478.936279,649.912781 
	C478.551086,648.518799 479.165039,646.026123 480.252289,645.218140 
	C482.560669,643.502747 485.413086,642.478882 488.116913,641.349792 
	C490.084808,640.527954 492.171967,639.991577 494.910919,639.140991 
	C503.970551,637.152222 508.704285,631.775940 511.261169,623.818665 
	C515.132324,611.771484 519.386414,599.848022 523.378540,587.838928 
	C525.053711,582.799622 526.475098,577.676086 528.011963,572.590820 
M661.662598,466.505463 
	C665.601379,452.766357 666.383362,438.731781 664.852844,424.629181 
	C664.084717,417.551941 661.210754,411.167114 655.101868,406.743286 
	C646.543945,400.545898 636.788818,400.303192 626.899353,401.265839 
	C625.694580,401.383087 624.177551,403.491913 623.685913,404.970612 
	C612.787720,437.747070 601.819336,470.502991 591.348083,503.416748 
	C588.626526,511.971161 587.852051,521.012939 593.899841,529.786499 
	C596.959045,535.202515 601.781738,536.832642 607.466248,535.362549 
	C611.087708,534.425903 614.945618,533.181335 617.873047,530.979004 
	C639.563782,514.660767 653.383606,492.887665 661.662598,466.505463 
z"/>
<path fill="#80D3F9" opacity="1.000000" stroke="none" 
	d="
M344.062988,579.062134 
	C345.054565,577.003845 346.277466,575.023743 347.003754,572.875732 
	C363.893890,522.921692 380.766724,472.961609 397.484253,422.949677 
	C398.467255,420.009033 398.118225,416.623138 398.389038,413.444427 
	C395.322723,413.550598 392.098846,413.083252 389.220520,413.873779 
	C381.539490,415.983459 373.999573,418.611176 366.418640,421.079224 
	C362.935974,422.213074 358.947144,424.216644 356.829193,419.680695 
	C354.826935,415.392395 357.792786,412.077942 361.360809,410.346008 
	C372.280334,405.045776 383.078705,399.188141 394.535767,395.393921 
	C404.965179,391.939972 410.541901,385.833160 414.104431,375.719635 
	C416.806305,368.049622 421.487610,360.854736 426.359100,354.236816 
	C430.771088,348.243103 437.636627,345.619049 445.285339,345.913483 
	C451.485046,346.152100 454.885040,349.326508 454.090332,355.392853 
	C453.297668,361.443512 451.336853,367.341980 449.870575,373.302826 
	C449.632477,374.270844 449.270325,375.207886 449.021088,376.173584 
	C446.859650,384.548767 447.612396,385.373505 456.091766,384.056274 
	C470.322601,381.845490 484.270294,382.477112 497.798096,387.980164 
	C516.804688,395.711945 528.519836,414.060059 526.488098,434.897675 
	C521.677368,484.235565 496.286652,519.916260 452.759094,542.759338 
	C442.069794,548.369080 430.044891,551.038513 417.932831,548.927551 
	C412.087097,547.908752 406.585815,544.491333 401.136383,541.747314 
	C396.328796,539.326538 394.537140,539.395020 392.716492,544.463379 
	C389.797882,552.588135 387.476990,560.927612 384.698242,569.845520 
	C381.667053,579.948608 378.841064,589.382446 375.814819,599.134888 
	C373.207886,608.349487 370.801178,617.245667 368.396484,626.532593 
	C369.208527,631.636597 372.062164,634.710205 376.414032,636.278503 
	C381.241516,638.018311 386.330109,639.113159 390.996216,641.184448 
	C393.031067,642.087769 394.296967,644.723389 395.912048,646.572266 
	C394.081512,648.008789 392.443909,649.969727 390.366058,650.734253 
	C388.291626,651.497559 385.776215,651.142700 383.454254,651.140442 
	C367.181763,651.124817 350.909271,651.073547 334.145599,651.050720 
	C323.756836,651.497742 313.859283,651.927795 303.562378,652.292236 
	C302.085999,652.181458 301.008972,652.136108 299.931946,652.090820 
	C295.591278,648.890320 295.851318,647.411743 302.244934,642.347046 
	C317.564911,640.216553 328.188080,634.016174 332.001221,618.226257 
	C334.788879,606.682739 339.458221,595.596619 343.198303,584.276794 
	C343.744476,582.623779 343.787292,580.804504 344.062988,579.062134 
M414.026276,531.793030 
	C417.406555,533.118042 420.899689,535.735229 424.139526,535.452332 
	C428.528870,535.069031 433.348511,533.304016 436.899109,530.669983 
	C456.964966,515.783752 469.902527,495.672302 478.633942,471.710083 
	C482.941711,456.268982 486.276459,440.888275 483.407440,424.540894 
	C481.590881,414.190460 475.611267,405.093506 465.178864,402.632141 
	C459.437347,401.277557 453.333038,401.460449 447.392242,400.950684 
	C444.379425,400.692169 443.013550,402.267212 442.117126,405.029144 
	C431.346588,438.213013 420.400543,471.340057 409.700714,504.546539 
	C406.678589,513.925598 406.788330,523.129028 414.026276,531.793030 
z"/>
<path fill="#80D3F9" opacity="1.000000" stroke="none" 
	d="
M204.001846,545.067627 
	C199.272736,541.244202 199.275879,537.667297 204.286377,534.517395 
	C206.206894,533.310059 208.528183,532.674316 210.735123,532.002319 
	C215.342178,530.599487 220.046112,529.502197 224.617844,527.998474 
	C234.215973,524.841492 240.340790,518.220764 242.917526,508.500427 
	C247.181641,492.414734 251.320343,476.295288 255.415421,460.165588 
	C256.701202,455.101166 255.042130,452.692535 249.911545,451.572357 
	C249.100983,451.395386 248.266098,451.208160 247.445023,451.219086 
	C229.451279,451.458679 211.443893,451.419708 193.476257,452.243927 
	C189.856857,452.409943 185.360931,455.044098 183.024765,457.951172 
	C171.655045,472.099548 160.755737,486.634338 149.980408,501.246552 
	C147.056015,505.212280 144.720764,509.753845 142.873352,514.336792 
	C140.538986,520.127747 142.200867,524.374695 147.553925,527.495605 
	C150.547714,529.241089 153.917114,530.334473 157.085968,531.789917 
	C159.495834,532.896729 162.083389,533.802002 164.187012,535.347900 
	C167.562332,537.828369 167.275131,541.443420 163.528915,543.296692 
	C161.375381,544.362000 158.782349,544.962646 156.372910,545.007446 
	C149.213898,545.140686 142.045044,544.717590 134.885040,544.830383 
	C113.409607,545.168518 91.936630,545.661682 70.462448,546.082153 
	C68.464134,546.121338 66.263947,546.602051 64.513786,545.938354 
	C62.136528,545.036804 58.668831,543.514954 58.313465,541.731995 
	C57.936165,539.838989 60.187267,536.707520 62.137543,535.251038 
	C64.430603,533.538574 67.571449,532.797791 70.453667,532.063354 
	C93.979767,526.068604 112.958832,513.664490 128.625076,494.797272 
	C174.172943,439.943024 220.493820,385.731171 266.346008,331.128418 
	C271.137421,325.422577 274.902130,318.840118 278.992218,312.565948 
	C280.981628,309.514191 283.413971,307.955231 287.194641,307.960785 
	C297.578918,307.976044 306.681274,304.326019 314.765320,297.848480 
	C318.006500,295.251373 321.382446,292.749603 324.968842,290.674011 
	C329.821014,287.865814 332.888580,289.435028 332.899628,294.982117 
	C332.910522,300.434113 332.428558,305.978546 331.375305,311.327301 
	C318.834259,375.014252 306.098694,438.662872 293.528503,502.344147 
	C290.259491,518.905090 295.147766,526.940857 311.148346,532.424133 
	C313.979736,533.394470 316.941315,534.189758 319.508942,535.652039 
	C321.183533,536.605713 323.230896,538.575867 323.300110,540.169434 
	C323.359741,541.541382 320.855804,543.024719 318.757263,544.688110 
	C313.386017,545.081238 308.736267,545.487671 304.101044,545.360901 
	C292.481995,545.043396 280.868683,544.083557 269.254669,544.109009 
	C247.503128,544.156799 225.752731,544.719299 204.001846,545.067627 
M266.840820,350.326080 
	C246.197235,376.263916 225.528580,402.181915 204.967880,428.185303 
	C203.630295,429.877045 203.122437,432.224762 202.228622,434.267395 
	C204.414230,434.794647 206.595505,435.756287 208.786194,435.778229 
	C222.448685,435.915161 236.113312,435.842194 249.777222,435.838135 
	C259.314026,435.835297 260.843964,434.591888 262.851166,425.231445 
	C268.678345,398.056824 274.528107,370.887024 280.275238,343.695496 
	C280.576813,342.268524 280.011627,340.658325 279.850006,339.133453 
	C278.180328,339.578491 276.001984,339.511658 274.939423,340.567596 
	C272.120026,343.369385 269.782501,346.656067 266.840820,350.326080 
z"/>
<path fill="#FDFEFE" opacity="1.000000" stroke="none" 
	d="
M240.011826,665.999573 
	C243.661438,648.812012 247.317108,631.625671 250.958725,614.436401 
	C253.675171,601.614136 256.303345,588.772156 259.185120,575.987305 
	C259.483154,574.665100 261.214539,572.711609 262.329132,572.678528 
	C271.415436,572.408997 280.513214,572.526855 290.058624,572.526855 
	C289.320251,576.123291 288.694000,579.173462 287.961945,582.984131 
	C286.415039,590.407227 284.949310,597.064697 283.537109,603.733459 
	C276.661346,636.202820 269.815033,668.678467 262.924866,701.144775 
	C260.611206,712.046631 258.198792,722.927490 255.792419,733.997925 
	C243.860901,733.997925 232.209686,734.088806 220.564835,733.858032 
	C219.393219,733.834839 217.654022,732.073364 217.203705,730.765503 
	C213.032928,718.651428 209.034027,706.477173 205.088760,694.286743 
	C198.705353,674.562744 192.390182,654.816650 186.066940,635.073242 
	C183.614441,627.415649 181.218414,619.739990 178.856995,612.263550 
	C170.842957,652.851135 162.841248,693.376221 154.819794,734.001404 
	C145.529846,734.001404 137.046265,734.050354 128.564301,733.956299 
	C127.034927,733.939331 125.512077,733.334045 123.986214,733.000366 
	C127.637947,716.292236 131.375397,699.602234 134.923615,682.872131 
	C142.405807,647.593262 149.785370,612.292725 157.225479,577.004883 
	C157.528229,575.568909 158.018661,574.172485 158.448242,572.664246 
	C171.411301,572.664246 184.215469,572.664246 197.712387,572.664246 
	C208.184570,605.857788 218.705444,639.205750 229.502655,673.224854 
	C231.551849,679.608887 233.324722,685.321716 235.097595,691.034607 
	C235.487610,690.992126 235.877640,690.949646 236.267670,690.907166 
	C237.515732,682.604614 238.763779,674.302124 240.011826,665.999573 
z"/>
<path fill="#38B5FF" opacity="1.000000" stroke="none" 
	d="
M827.787476,548.000000 
	C827.788635,507.342621 827.892395,467.184784 827.708984,427.028229 
	C827.670105,418.526764 830.147705,414.561859 840.047180,414.646545 
	C870.871094,414.910309 901.698975,414.810211 932.524719,414.694672 
	C939.307617,414.669220 944.745117,417.072815 949.396362,421.858582 
	C954.854004,427.474121 960.596069,432.819244 965.925171,438.550934 
	C968.438538,441.254181 971.101318,442.132904 974.691284,442.069672 
	C985.851929,441.873108 997.018188,441.984436 1008.182312,442.001801 
	C1018.708191,442.018158 1022.016235,445.259460 1022.016907,455.555878 
	C1022.021484,521.873901 1022.021301,588.191895 1022.016724,654.509888 
	C1022.016052,663.986267 1018.291504,667.845703 1008.825012,667.852905 
	C960.502869,667.889954 912.180664,667.889954 863.858521,667.850159 
	C854.981018,667.842834 850.030457,662.738708 850.000610,653.876831 
	C849.986023,649.557312 849.998047,645.237610 849.998047,640.000427 
	C846.423828,640.000427 843.179077,640.028259 839.934937,639.995056 
	C831.005432,639.903687 827.829956,636.839844 827.813110,627.981750 
	C827.762756,601.487915 827.790466,574.993958 827.787476,548.000000 
M935.895691,460.432159 
	C935.895630,449.932892 935.673828,439.426788 935.995483,428.937378 
	C936.141541,424.173767 934.383606,423.027069 929.915344,423.051575 
	C900.751404,423.211700 871.585327,423.249359 842.422302,423.024719 
	C837.317688,422.985382 835.958374,424.530426 835.970520,429.554932 
	C836.127136,494.383667 836.072693,559.212891 836.076172,624.041992 
	C836.076599,630.985474 836.090027,630.998901 842.959473,630.999512 
	C889.789734,631.003601 936.620056,631.002991 983.450317,631.000061 
	C990.146057,630.999634 990.165710,630.989929 990.166565,624.522705 
	C990.172363,577.525757 990.172974,530.528870 990.157715,483.531921 
	C990.157104,481.584442 989.982605,479.637054 989.862366,477.133545 
	C987.661194,477.133545 985.875427,477.133728 984.089600,477.133545 
	C972.257019,477.132294 960.424133,477.178802 948.592285,477.085205 
	C946.482971,477.068542 944.254700,476.805328 942.293762,476.080902 
	C935.183044,473.453979 935.893188,467.237579 935.895691,460.432159 
M905.500000,658.860657 
	C939.317810,658.860657 973.135681,658.863770 1006.953491,658.858154 
	C1013.669373,658.856995 1013.875244,658.656799 1013.878662,651.744934 
	C1013.890747,627.422729 1013.883484,603.100464 1013.883545,578.778259 
	C1013.883545,538.629944 1013.885254,498.481659 1013.882202,458.333344 
	C1013.881653,451.008789 1013.872803,451.006195 1006.350220,451.003052 
	C998.687073,450.999847 991.023804,450.984406 983.360840,451.021515 
	C982.168884,451.027283 980.978088,451.284821 978.359253,451.595062 
	C983.280823,456.234772 987.164062,460.120300 991.288940,463.729614 
	C996.969543,468.700348 999.126160,474.981293 999.120850,482.330627 
	C999.086426,530.142090 999.109253,577.953613 999.098022,625.765076 
	C999.095642,635.938599 995.051453,639.996704 984.952637,639.998718 
	C945.137512,640.006653 905.322388,640.002136 865.507263,640.002197 
	C863.439026,640.002258 861.370728,640.002197 859.005859,640.002197 
	C859.005859,645.121155 859.127136,649.281006 858.971069,653.430481 
	C858.820740,657.427673 860.319214,659.008118 864.519531,658.939880 
	C877.843323,658.723328 891.172729,658.860168 905.500000,658.860657 
M972.988037,457.512054 
	C963.935425,448.488037 954.882812,439.463989 945.830200,430.439972 
	C944.774841,439.669434 944.773682,448.139282 944.775208,456.609131 
	C944.777344,468.324615 944.778137,468.324615 956.287659,468.324646 
	C965.005554,468.324646 973.723511,468.324646 982.441406,468.324646 
	C982.729736,467.871887 983.018066,467.419128 983.306396,466.966370 
	C980.033630,463.981628 976.760864,460.996887 972.988037,457.512054 
z"/>
<path fill="#FDFEFE" opacity="1.000000" stroke="none" 
	d="
M597.598267,587.463440 
	C600.256592,572.538635 600.256592,572.533386 614.880066,572.530884 
	C640.024170,572.526672 665.168335,572.529724 691.052185,572.529724 
	C689.127563,581.565063 687.398621,590.267395 685.255432,598.866516 
	C685.032654,599.760620 682.354431,600.521423 680.809265,600.533142 
	C664.985413,600.653320 649.158997,600.709534 633.336365,600.527283 
	C629.699707,600.485474 628.177185,601.390747 627.511597,605.235352 
	C625.758118,615.364929 623.414246,625.392273 621.204712,635.941284 
	C638.921814,635.941284 656.176697,635.941284 673.845398,635.941284 
	C671.787903,645.473633 669.832764,654.531677 667.799072,663.953979 
	C650.327393,663.953979 632.885986,663.953979 615.126404,663.953979 
	C612.186523,677.851440 609.311646,691.441528 606.308167,705.639648 
	C625.294067,705.639648 643.681091,705.639648 662.773010,705.639648 
	C660.728088,715.420410 658.813599,724.577454 656.878357,733.833618 
	C626.845032,733.833618 597.064514,733.833618 566.657471,733.833618 
	C576.969971,684.990540 587.223083,636.429016 597.598267,587.463440 
z"/>
<path fill="#FDFEFE" opacity="1.000000" stroke="none" 
	d="
M798.587708,587.597656 
	C795.515503,594.078857 792.635925,600.232971 789.893616,606.093872 
	C782.109436,603.828979 774.743347,601.299072 767.186401,599.636780 
	C762.877441,598.688904 758.212036,598.678650 753.787354,599.096313 
	C746.748779,599.760559 740.927612,603.095276 738.236511,609.936035 
	C735.485596,616.929016 736.279053,623.979309 741.485535,629.538330 
	C745.304871,633.616272 750.155151,636.728088 754.542419,640.274902 
	C759.966797,644.660217 765.926331,648.533997 770.711609,653.531860 
	C786.899414,670.438904 788.040649,698.406311 773.558899,716.283447 
	C765.323914,726.449158 754.159851,731.742493 741.574524,734.197510 
	C723.705322,737.683044 706.196228,736.941406 689.248291,729.491211 
	C685.132812,727.681946 683.092041,725.481995 683.416504,720.566650 
	C683.929871,712.787842 683.553223,704.950378 683.553223,696.339417 
	C685.480652,697.233643 686.895752,697.851196 688.276917,698.536987 
	C702.239807,705.470154 716.673767,710.020630 732.520447,707.018494 
	C739.699768,705.658325 746.252197,702.828186 748.506714,695.232178 
	C750.740356,687.706604 748.933289,680.555359 743.175171,675.036377 
	C738.986694,671.021851 734.042419,667.805054 729.751648,663.885986 
	C723.142944,657.849792 715.968445,652.170715 710.510437,645.186279 
	C694.401428,624.572205 699.817322,582.413208 739.914734,572.386963 
	C760.712280,567.186584 780.883240,570.505127 799.951050,580.299805 
	C800.369995,580.514954 800.681030,580.940186 801.280823,581.483337 
	C800.457092,583.389771 799.618713,585.330200 798.587708,587.597656 
z"/>
<path fill="#FDFDFE" opacity="1.000000" stroke="none" 
	d="
M299.908325,652.494141 
	C301.008972,652.136108 302.085999,652.181458 303.563171,652.663574 
	C301.729492,666.191101 303.152832,668.411865 316.724121,670.565369 
	C321.770630,671.366211 327.015015,670.919861 332.280640,671.453857 
	C332.602509,675.518555 332.634857,679.192200 333.054047,682.821167 
	C334.914825,698.930847 345.755524,708.056335 361.962067,707.360168 
	C373.167480,706.878784 382.211060,701.819336 389.069763,693.389221 
	C405.827240,672.792358 409.571136,648.629333 407.331726,622.594666 
	C406.957123,621.141357 406.420563,620.126343 406.185852,619.045654 
	C403.781036,607.971436 397.457214,600.821533 386.024750,598.349487 
	C386.497437,596.043274 386.870850,594.094238 387.444336,592.205872 
	C389.604279,585.093750 391.829346,578.001526 394.029968,570.901794 
	C416.723572,571.708435 436.306549,587.579346 440.417786,611.827759 
	C446.505127,647.731262 440.283142,681.627075 416.501129,710.448792 
	C394.854736,736.682373 359.749817,741.098389 333.686493,732.318176 
	C312.926056,725.324463 302.789886,709.257385 299.105225,688.460510 
	C296.996765,676.560181 297.810638,664.712158 299.908325,652.494141 
z"/>
<path fill="#0148A7" opacity="1.000000" stroke="none" 
	d="
M123.649445,733.134888 
	C125.512077,733.334045 127.034927,733.939331 128.564301,733.956299 
	C137.046265,734.050354 145.529846,734.001404 154.819794,734.001404 
	C162.841248,693.376221 170.842957,652.851135 178.856995,612.263550 
	C181.218414,619.739990 183.614441,627.415649 186.066940,635.073242 
	C192.390182,654.816650 198.705353,674.562744 205.088760,694.286743 
	C209.034027,706.477173 213.032928,718.651428 217.203705,730.765503 
	C217.654022,732.073364 219.393219,733.834839 220.564835,733.858032 
	C232.209686,734.088806 243.860901,733.997925 255.792419,733.997925 
	C258.198792,722.927490 260.611206,712.046631 262.924866,701.144775 
	C269.815033,668.678467 276.661346,636.202820 283.537109,603.733459 
	C284.949310,597.064697 286.415039,590.407227 287.996033,583.372925 
	C291.612244,583.202942 292.247040,585.801880 291.908447,588.335327 
	C290.920074,595.730469 289.846771,603.134888 288.321045,610.434082 
	C280.291229,648.849182 272.133362,687.237671 263.952148,725.620850 
	C263.088623,729.672180 262.040375,733.723267 260.623444,737.608704 
	C258.218414,744.203918 253.074081,746.999695 246.231445,746.998840 
	C240.401749,746.998169 234.567307,746.850525 228.743469,747.035339 
	C220.339432,747.302002 214.545975,743.540771 211.827545,735.755981 
	C207.329834,722.876038 203.287125,709.837891 198.966568,696.895142 
	C194.174042,682.538696 189.317993,668.203003 184.392670,653.891724 
	C183.826553,652.246643 182.639404,650.815369 180.796341,647.678528 
	C179.120041,651.367432 177.585266,653.618591 177.056625,656.085449 
	C172.596542,676.897400 168.348801,697.754700 163.969894,718.584229 
	C162.807068,724.115662 161.693314,729.683472 160.057251,735.083130 
	C157.502716,743.514160 152.575653,747.088135 143.798447,746.933289 
	C138.691513,746.843140 133.422333,746.754456 128.541946,745.467468 
	C123.088226,744.029480 120.996758,738.074829 123.649445,733.134888 
z"/>
<path fill="#0148A6" opacity="1.000000" stroke="none" 
	d="
M565.971558,572.618958 
	C568.943542,562.638489 571.767212,552.609863 574.979797,542.707458 
	C575.916077,539.821533 578.534729,539.487793 581.179565,541.032898 
	C581.323242,541.116760 581.479980,541.181091 581.614868,541.276733 
	C602.439392,556.045044 622.962952,549.673157 642.106445,538.647400 
	C671.517212,521.708069 691.253906,496.149323 702.307434,464.034302 
	C706.212280,452.689270 708.354736,440.996704 708.001526,428.465210 
	C713.209473,431.609589 712.510376,437.404114 712.876404,442.428589 
	C714.463623,464.217468 707.932312,484.036041 697.593201,502.924805 
	C685.935913,524.221863 669.912231,541.409912 649.753174,554.790283 
	C637.012085,563.247009 622.780090,567.723511 607.656555,568.732910 
	C602.333923,569.088135 596.849426,567.290405 591.462646,566.340332 
	C584.886658,565.180542 580.598511,566.867004 577.562744,572.152710 
	C573.374329,572.534973 569.672913,572.576965 565.971558,572.618958 
z"/>
<path fill="#0148A7" opacity="1.000000" stroke="none" 
	d="
M203.977936,545.453003 
	C225.752731,544.719299 247.503128,544.156799 269.254669,544.109009 
	C280.868683,544.083557 292.481995,545.043396 304.101044,545.360901 
	C308.736267,545.487671 313.386017,545.081238 318.496124,544.904968 
	C319.128937,545.871948 319.208679,546.875427 319.474060,547.827209 
	C321.995514,556.870422 316.897125,564.668396 307.349518,564.824707 
	C293.264130,565.055420 279.165070,564.263123 265.069916,564.152832 
	C256.788544,564.088013 248.504333,564.559509 240.219818,564.680725 
	C232.255661,564.797241 224.212952,565.487061 216.342087,564.643616 
	C204.560303,563.380981 201.081177,557.489624 203.977936,545.453003 
z"/>
<path fill="#FDFDFE" opacity="1.000000" stroke="none" 
	d="
M521.659058,670.133667 
	C517.270447,691.248352 512.881836,712.363037 508.446320,733.703247 
	C497.267334,733.703247 486.362579,733.703247 474.652435,733.703247 
	C479.361847,711.623962 484.046509,689.660645 489.274841,667.425415 
	C500.174133,670.902100 510.989868,669.735291 521.659058,670.133667 
z"/>
<path fill="#FDFDFE" opacity="1.000000" stroke="none" 
	d="
M527.541077,572.572266 
	C526.475098,577.676086 525.053711,582.799622 523.378540,587.838928 
	C519.386414,599.848022 515.132324,611.771484 511.261169,623.818665 
	C508.704285,631.775940 503.970551,637.152222 495.237396,638.980774 
	C497.394958,626.480774 499.931000,613.953979 502.554840,600.993652 
	C489.507812,600.993652 476.884949,600.993652 463.870209,600.993652 
	C465.712982,592.139832 467.297302,583.671875 469.402252,575.335388 
	C469.718658,574.082275 472.461151,572.658691 474.095123,572.641785 
	C491.751892,572.459290 509.411407,572.542786 527.541077,572.572266 
z"/>
<path fill="#FAFBFD" opacity="1.000000" stroke="none" 
	d="
M343.770325,579.243652 
	C343.787292,580.804504 343.744476,582.623779 343.198303,584.276794 
	C339.458221,595.596619 334.788879,606.682739 332.001221,618.226257 
	C328.188080,634.016174 317.564911,640.216553 302.476135,642.100830 
	C308.055450,617.026306 319.717316,595.673401 341.957123,581.239197 
	C342.589905,580.828552 342.976349,580.038330 343.770325,579.243652 
z"/>
<path fill="#F3F5F6" opacity="1.000000" stroke="none" 
	d="
M521.798584,669.805664 
	C510.989868,669.735291 500.174133,670.902100 489.442261,667.081421 
	C489.960114,662.301208 490.854187,657.593079 491.778503,652.512695 
	C502.946808,651.635559 514.084839,651.130615 525.553345,650.705566 
	C524.568542,657.016296 523.253296,663.247009 521.798584,669.805664 
z"/>
<path fill="#0148A6" opacity="1.000000" stroke="none" 
	d="
M556.103394,634.755676 
	C550.363098,632.377991 548.311584,627.082275 550.369568,620.118896 
	C552.230713,613.821777 554.307434,607.588257 557.061890,601.150024 
	C562.450195,600.988220 567.070679,600.878418 571.679321,601.063782 
	C574.531921,601.178650 575.685486,600.224670 576.129700,597.278503 
	C576.804871,592.800964 578.140808,588.422974 579.196045,584.002747 
	C580.127869,585.524536 581.927551,587.090698 581.852356,588.560913 
	C581.313171,599.098022 579.622498,609.414612 568.156433,613.849365 
	C558.410156,617.618958 557.788086,626.139893 556.103394,634.755676 
z"/>
<path fill="#F3F5F6" opacity="1.000000" stroke="none" 
	d="
M579.172974,583.614380 
	C578.140808,588.422974 576.804871,592.800964 576.129700,597.278503 
	C575.685486,600.224670 574.531921,601.178650 571.679321,601.063782 
	C567.070679,600.878418 562.450195,600.988220 557.353149,600.916748 
	C559.734741,591.622803 562.597839,582.385620 565.716248,572.883667 
	C569.672913,572.576965 573.374329,572.534973 577.533020,572.489380 
	C580.162048,572.319580 581.589050,572.801575 580.901367,575.487549 
	C580.245667,578.048645 579.728088,580.645081 579.172974,583.614380 
z"/>
<path fill="#F3F5F6" opacity="1.000000" stroke="none" 
	d="
M393.678009,570.710327 
	C391.829346,578.001526 389.604279,585.093750 387.444336,592.205872 
	C386.870850,594.094238 386.497437,596.043274 385.570740,598.385193 
	C382.077911,598.809387 379.046478,598.812927 376.015076,598.816406 
	C378.841064,589.382446 381.667053,579.948608 384.720825,570.236572 
	C387.741058,570.145203 390.533539,570.332031 393.678009,570.710327 
z"/>
<path fill="#024AAA" opacity="1.000000" stroke="none" 
	d="
M239.685669,666.107422 
	C238.763779,674.302124 237.515732,682.604614 236.267670,690.907166 
	C235.877640,690.949646 235.487610,690.992126 235.097595,691.034607 
	C233.324722,685.321716 231.551849,679.608887 229.741226,673.501221 
	C233.828964,674.621582 236.185989,672.907959 237.511261,668.992615 
	C237.855728,667.974915 238.729080,667.136230 239.685669,666.107422 
z"/>
<path fill="#004AAC" opacity="1.000000" stroke="none" 
	d="
M661.194641,467.095978 
	C653.383606,492.887665 639.563782,514.660767 617.873047,530.979004 
	C614.945618,533.181335 611.087708,534.425903 607.466248,535.362549 
	C601.781738,536.832642 596.959045,535.202515 594.146484,529.318359 
	C595.093872,526.574524 595.781006,524.294495 596.497681,522.023743 
	C605.906250,492.214783 615.001526,462.301239 624.894897,432.653992 
	C628.584778,421.596832 640.499756,418.605408 649.737549,425.679565 
	C652.769531,428.001373 655.948853,431.447418 656.856384,434.950470 
	C658.699524,442.064850 659.053772,449.566742 659.993896,456.912445 
	C660.427856,460.302673 660.796448,463.701202 661.194641,467.095978 
z"/>
<path fill="#0148A6" opacity="1.000000" stroke="none" 
	d="
M661.428589,466.800720 
	C660.796448,463.701202 660.427856,460.302673 659.993896,456.912445 
	C659.053772,449.566742 658.699524,442.064850 656.856384,434.950470 
	C655.948853,431.447418 652.769531,428.001373 649.737549,425.679565 
	C640.499756,418.605408 628.584778,421.596832 624.894897,432.653992 
	C615.001526,462.301239 605.906250,492.214783 596.497681,522.023743 
	C595.781006,524.294495 595.093872,526.574524 594.015137,528.990112 
	C587.852051,521.012939 588.626526,511.971161 591.348083,503.416748 
	C601.819336,470.502991 612.787720,437.747070 623.685913,404.970612 
	C624.177551,403.491913 625.694580,401.383087 626.899353,401.265839 
	C636.788818,400.303192 646.543945,400.545898 655.101868,406.743286 
	C661.210754,411.167114 664.084717,417.551941 664.852844,424.629181 
	C666.383362,438.731781 665.601379,452.766357 661.428589,466.800720 
z"/>
<path fill="#024AAA" opacity="1.000000" stroke="none" 
	d="
M407.309845,623.002441 
	C409.571136,648.629333 405.827240,672.792358 389.069763,693.389221 
	C382.211060,701.819336 373.167480,706.878784 361.962067,707.360168 
	C345.755524,708.056335 334.914825,698.930847 333.054047,682.821167 
	C332.634857,679.192200 332.602509,675.518555 332.431763,671.074280 
	C333.193207,663.866638 333.915009,657.450195 334.636780,651.033752 
	C350.909271,651.073547 367.181763,651.124817 383.454254,651.140442 
	C385.776215,651.142700 388.291626,651.497559 390.366058,650.734253 
	C392.443909,649.969727 394.081512,648.008789 395.912048,646.572266 
	C394.296967,644.723389 393.031067,642.087769 390.996216,641.184448 
	C386.330109,639.113159 381.241516,638.018311 376.414032,636.278503 
	C372.062164,634.710205 369.208527,631.636597 368.771973,626.437256 
	C370.156006,624.520142 371.361511,623.188293 372.146729,621.642883 
	C379.494568,607.181702 393.663483,606.034424 403.123901,619.108032 
	C404.219971,620.622742 405.900360,621.714539 407.309845,623.002441 
z"/>
<path fill="#004AAC" opacity="1.000000" stroke="none" 
	d="
M478.152466,472.333313 
	C469.902527,495.672302 456.964966,515.783752 436.899109,530.669983 
	C433.348511,533.304016 428.528870,535.069031 424.139526,535.452332 
	C420.899689,535.735229 417.406555,533.118042 414.161865,531.151733 
	C415.240662,525.470947 415.673065,520.269409 417.211761,515.418823 
	C425.810242,488.312378 434.669464,461.288574 443.472443,434.247223 
	C443.880737,432.993042 444.571106,431.824463 445.184540,430.644318 
	C449.356659,422.617706 459.352356,420.223663 466.844086,425.362030 
	C474.480804,430.599854 477.734741,438.096252 477.963623,447.040619 
	C478.179260,455.467621 478.101257,463.902100 478.152466,472.333313 
z"/>
<path fill="#0148A7" opacity="1.000000" stroke="none" 
	d="
M478.393188,472.021698 
	C478.101257,463.902100 478.179260,455.467621 477.963623,447.040619 
	C477.734741,438.096252 474.480804,430.599854 466.844086,425.362030 
	C459.352356,420.223663 449.356659,422.617706 445.184540,430.644318 
	C444.571106,431.824463 443.880737,432.993042 443.472443,434.247223 
	C434.669464,461.288574 425.810242,488.312378 417.211761,515.418823 
	C415.673065,520.269409 415.240662,525.470947 414.036346,530.816406 
	C406.788330,523.129028 406.678589,513.925598 409.700714,504.546539 
	C420.400543,471.340057 431.346588,438.213013 442.117126,405.029144 
	C443.013550,402.267212 444.379425,400.692169 447.392242,400.950684 
	C453.333038,401.460449 459.437347,401.277557 465.178864,402.632141 
	C475.611267,405.093506 481.590881,414.190460 483.407440,424.540894 
	C486.276459,440.888275 482.941711,456.268982 478.393188,472.021698 
z"/>
<path fill="#F3F5F6" opacity="1.000000" stroke="none" 
	d="
M334.145599,651.050720 
	C333.915009,657.450195 333.193207,663.866638 332.320312,670.662659 
	C327.015015,670.919861 321.770630,671.366211 316.724121,670.565369 
	C303.152832,668.411865 301.729492,666.191101 303.962524,652.729126 
	C313.859283,651.927795 323.756836,651.497742 334.145599,651.050720 
z"/>
<path fill="#0148A6" opacity="1.000000" stroke="none" 
	d="
M407.331726,622.594666 
	C405.900360,621.714539 404.219971,620.622742 403.123901,619.108032 
	C393.663483,606.034424 379.494568,607.181702 372.146729,621.642883 
	C371.361511,623.188293 370.156006,624.520142 368.769958,626.046387 
	C370.801178,617.245667 373.207886,608.349487 375.814819,599.134888 
	C379.046478,598.812927 382.077911,598.809387 385.563354,598.770264 
	C397.457214,600.821533 403.781036,607.971436 406.185852,619.045654 
	C406.420563,620.126343 406.957123,621.141357 407.331726,622.594666 
z"/>
<path fill="#024AAA" opacity="1.000000" stroke="none" 
	d="
M267.047058,350.037964 
	C269.782501,346.656067 272.120026,343.369385 274.939423,340.567596 
	C276.001984,339.511658 278.180328,339.578491 279.850006,339.133453 
	C280.011627,340.658325 280.576813,342.268524 280.275238,343.695496 
	C274.528107,370.887024 268.678345,398.056824 262.851166,425.231445 
	C260.843964,434.591888 259.314026,435.835297 249.777222,435.838135 
	C236.113312,435.842194 222.448685,435.915161 208.786194,435.778229 
	C206.595505,435.756287 204.414230,434.794647 202.228622,434.267395 
	C203.122437,432.224762 203.630295,429.877045 204.967880,428.185303 
	C225.528580,402.181915 246.197235,376.263916 267.047058,350.037964 
z"/>
<path fill="#014BAE" opacity="1.000000" stroke="none" 
	d="
M935.895630,460.918549 
	C935.893188,467.237579 935.183044,473.453979 942.293762,476.080902 
	C944.254700,476.805328 946.482971,477.068542 948.592285,477.085205 
	C960.424133,477.178802 972.257019,477.132294 984.089600,477.133545 
	C985.875427,477.133728 987.661194,477.133545 989.862366,477.133545 
	C989.982605,479.637054 990.157104,481.584442 990.157715,483.531921 
	C990.172974,530.528870 990.172363,577.525757 990.166565,624.522705 
	C990.165710,630.989929 990.146057,630.999634 983.450317,631.000061 
	C936.620056,631.002991 889.789734,631.003601 842.959473,630.999512 
	C836.090027,630.998901 836.076599,630.985474 836.076172,624.041992 
	C836.072693,559.212891 836.127136,494.383667 835.970520,429.554932 
	C835.958374,424.530426 837.317688,422.985382 842.422302,423.024719 
	C871.585327,423.249359 900.751404,423.211700 929.915344,423.051575 
	C934.383606,423.027069 936.141541,424.173767 935.995483,428.937378 
	C935.673828,439.426788 935.895630,449.932892 935.895630,460.918549 
M902.500000,565.899597 
	C922.492004,565.898987 942.484009,565.908752 962.476013,565.885864 
	C965.305725,565.882629 968.731567,566.174011 968.888245,562.168579 
	C969.046082,558.134827 965.727600,558.111694 962.812988,558.110718 
	C929.659607,558.099243 896.506165,558.103577 863.352783,558.102966 
	C860.567627,558.102905 857.494385,558.256897 857.405579,561.835571 
	C857.307434,565.794006 860.563538,565.895386 863.515198,565.896240 
	C876.176819,565.899780 888.838379,565.898743 902.500000,565.899597 
M864.738892,530.680847 
	C863.574341,530.706482 862.153076,530.319702 861.302307,530.849365 
	C859.825928,531.768372 858.702393,533.254272 857.430969,534.502502 
	C858.822693,535.656738 860.135864,536.932861 861.645203,537.904358 
	C862.238464,538.286255 863.270325,537.996216 864.102417,537.996277 
	C896.894165,537.997681 929.685852,538.000916 962.477600,537.984192 
	C963.799316,537.983521 965.435608,538.234863 966.362793,537.576538 
	C967.521973,536.753418 968.673035,535.134338 968.731262,533.810608 
	C968.772766,532.867676 967.168152,531.386719 966.004089,530.972839 
	C964.510559,530.441895 962.722229,530.689575 961.060913,530.689026 
	C929.267883,530.678284 897.474915,530.680298 864.738892,530.680847 
M875.502686,502.866241 
	C871.011353,502.874023 866.486084,502.571167 862.046997,503.056519 
	C860.472534,503.228668 859.107910,505.319733 857.647461,506.534760 
	C859.112671,507.782471 860.475586,509.193634 862.089600,510.203644 
	C862.812683,510.656219 864.038879,510.316803 865.036743,510.316864 
	C897.141785,510.318848 929.246826,510.319672 961.351868,510.313416 
	C962.681091,510.313171 964.290161,510.700073 965.273682,510.097839 
	C966.737671,509.201324 967.759766,507.583191 968.969849,506.272125 
	C967.756348,505.159943 966.706848,503.675385 965.280273,503.047241 
	C964.018311,502.491608 962.336426,502.869873 960.839966,502.869629 
	C932.727234,502.865417 904.614563,502.866211 875.502686,502.866241 
M877.501099,593.319519 
	C886.148132,593.318115 894.795227,593.337524 903.442139,593.302795 
	C906.119141,593.292053 909.279602,593.500122 909.145996,589.569397 
	C909.016296,585.751709 905.898132,586.009460 903.210571,586.007446 
	C890.073730,585.997681 876.936890,586.004578 863.800049,586.001099 
	C860.915466,586.000305 857.522888,585.797485 857.541016,589.797607 
	C857.557983,593.537537 860.862122,593.284302 863.531616,593.306580 
	C867.854858,593.342712 872.178589,593.318848 877.501099,593.319519 
z"/>
<path fill="#004AAD" opacity="1.000000" stroke="none" 
	d="
M905.000000,658.860474 
	C891.172729,658.860168 877.843323,658.723328 864.519531,658.939880 
	C860.319214,659.008118 858.820740,657.427673 858.971069,653.430481 
	C859.127136,649.281006 859.005859,645.121155 859.005859,640.002197 
	C861.370728,640.002197 863.439026,640.002258 865.507263,640.002197 
	C905.322388,640.002136 945.137512,640.006653 984.952637,639.998718 
	C995.051453,639.996704 999.095642,635.938599 999.098022,625.765076 
	C999.109253,577.953613 999.086426,530.142090 999.120850,482.330627 
	C999.126160,474.981293 996.969543,468.700348 991.288940,463.729614 
	C987.164062,460.120300 983.280823,456.234772 978.359253,451.595062 
	C980.978088,451.284821 982.168884,451.027283 983.360840,451.021515 
	C991.023804,450.984406 998.687073,450.999847 1006.350220,451.003052 
	C1013.872803,451.006195 1013.881653,451.008789 1013.882202,458.333344 
	C1013.885254,498.481659 1013.883545,538.629944 1013.883545,578.778259 
	C1013.883484,603.100464 1013.890747,627.422729 1013.878662,651.744934 
	C1013.875244,658.656799 1013.669373,658.856995 1006.953491,658.858154 
	C973.135681,658.863770 939.317810,658.860657 905.000000,658.860474 
z"/>
<path fill="#014BAE" opacity="1.000000" stroke="none" 
	d="
M973.238037,457.762115 
	C976.760864,460.996887 980.033630,463.981628 983.306396,466.966370 
	C983.018066,467.419128 982.729736,467.871887 982.441406,468.324646 
	C973.723511,468.324646 965.005554,468.324646 956.287659,468.324646 
	C944.778137,468.324615 944.777344,468.324615 944.775208,456.609131 
	C944.773682,448.139282 944.774841,439.669434 945.830200,430.439972 
	C954.882812,439.463989 963.935425,448.488037 973.238037,457.762115 
z"/>
<path fill="#35AFFA" opacity="1.000000" stroke="none" 
	d="
M902.000000,565.899536 
	C888.838379,565.898743 876.176819,565.899780 863.515198,565.896240 
	C860.563538,565.895386 857.307434,565.794006 857.405579,561.835571 
	C857.494385,558.256897 860.567627,558.102905 863.352783,558.102966 
	C896.506165,558.103577 929.659607,558.099243 962.812988,558.110718 
	C965.727600,558.111694 969.046082,558.134827 968.888245,562.168579 
	C968.731567,566.174011 965.305725,565.882629 962.476013,565.885864 
	C942.484009,565.908752 922.492004,565.898987 902.000000,565.899536 
z"/>
<path fill="#38B5FF" opacity="1.000000" stroke="none" 
	d="
M865.210388,530.680298 
	C897.474915,530.680298 929.267883,530.678284 961.060913,530.689026 
	C962.722229,530.689575 964.510559,530.441895 966.004089,530.972839 
	C967.168152,531.386719 968.772766,532.867676 968.731262,533.810608 
	C968.673035,535.134338 967.521973,536.753418 966.362793,537.576538 
	C965.435608,538.234863 963.799316,537.983521 962.477600,537.984192 
	C929.685852,538.000916 896.894165,537.997681 864.102417,537.996277 
	C863.270325,537.996216 862.238464,538.286255 861.645203,537.904358 
	C860.135864,536.932861 858.822693,535.656738 857.430969,534.502502 
	C858.702393,533.254272 859.825928,531.768372 861.302307,530.849365 
	C862.153076,530.319702 863.574341,530.706482 865.210388,530.680298 
z"/>
<path fill="#38B5FF" opacity="1.000000" stroke="none" 
	d="
M876.002258,502.866119 
	C904.614563,502.866211 932.727234,502.865417 960.839966,502.869629 
	C962.336426,502.869873 964.018311,502.491608 965.280273,503.047241 
	C966.706848,503.675385 967.756348,505.159943 968.969849,506.272125 
	C967.759766,507.583191 966.737671,509.201324 965.273682,510.097839 
	C964.290161,510.700073 962.681091,510.313171 961.351868,510.313416 
	C929.246826,510.319672 897.141785,510.318848 865.036743,510.316864 
	C864.038879,510.316803 862.812683,510.656219 862.089600,510.203644 
	C860.475586,509.193634 859.112671,507.782471 857.647461,506.534760 
	C859.107910,505.319733 860.472534,503.228668 862.046997,503.056519 
	C866.486084,502.571167 871.011353,502.874023 876.002258,502.866119 
z"/>
<path fill="#38B5FF" opacity="1.000000" stroke="none" 
	d="
M877.001587,593.319946 
	C872.178589,593.318848 867.854858,593.342712 863.531616,593.306580 
	C860.862122,593.284302 857.557983,593.537537 857.541016,589.797607 
	C857.522888,585.797485 860.915466,586.000305 863.800049,586.001099 
	C876.936890,586.004578 890.073730,585.997681 903.210571,586.007446 
	C905.898132,586.009460 909.016296,585.751709 909.145996,589.569397 
	C909.279602,593.500122 906.119141,593.292053 903.442139,593.302795 
	C894.795227,593.337524 886.148132,593.318115 877.001587,593.319946 
z"/>
</svg>